# xmcd CD database file
#
# Track frame offsets:
#	150
#	12510
#	25053
#	35148
#	45110
#	56014
#	65146
#	74759
#	86382
#	96007
#	107103
#	117337
#	129103
#	140363
#	151016
#	160508
#	166288
#	177510
#	185675
#	197519
#	215929
#	224914
#	233941
#	243568
#	256702
#
# Disc length: 3534 seconds
#
# Revision: 0
# Processed by: cddbd v1.5.2PL0 Copyright (c) Steve Scherf et al.
# Submitted via: CDex 1.51
#
DISCID=690dcc19
DTITLE=Johnny Cash - 100 Hits Disc 1
DYEAR=2017
DGENRE=Country
TTITLE0=I Walk The Line
TTITLE1=Folsom Prison Blues
TTITLE2=Get Rhythm
TTITLE3=Hey, Porter
TTITLE4=Cry, Cry, Cry
TTITLE5=Blue Train
TTITLE6=Story Of A Broken Heart
TTITLE7=Doin' My Time
TTITLE8=Just About Time
TTITLE9=Mean-Eyed Cat
TTITLE10=There You Go
TTITLE11=So Doggone Lonesome
TTITLE12=I'd Rather Die Young
TTITLE13=Train Of Love
TTITLE14=Down The Street To 301
TTITLE15=My Treasure
TTITLE16=Oh, Lonesome Me
TTITLE17=Sugartime
TTITLE18=Port Of Lonely Hearts
TTITLE19=The Big Battle
TTITLE20=Sing It Pretty, Sue
TTITLE21=Life Goes On
TTITLE22=Born To Lose
TTITLE23=Forty Shades Of Green
TTITLE24=I'm Free From The Chain Gang Now
EXTD=YEAR: 2017
EXTT0=
EXTT1=
EXTT2=
EXTT3=
EXTT4=
EXTT5=
EXTT6=
EXTT7=
EXTT8=
EXTT9=
EXTT10=
EXTT11=
EXTT12=
EXTT13=
EXTT14=
EXTT15=
EXTT16=
EXTT17=
EXTT18=
EXTT19=
EXTT20=
EXTT21=
EXTT22=
EXTT23=
EXTT24=
PLAYORDER=
